<svg width="302362.205" height="264566.929" xmlns="http://www.w3.org/2000/svg" xmlns:xlink="http://www.w3.org/1999/xlink"><defs><linearGradient id="a"><stop offset="0" stop-color="#002723"/><stop offset="1" stop-opacity=".498"/><stop offset="1" stop-color="#fff" stop-opacity="0"/></linearGradient><radialGradient cx="9.985" cy="583.809" fx="9.985" fy="583.809" gradientTransform="scale(1.0566 .94642)" gradientUnits="userSpaceOnUse" id="b" r="84.55" xlink:href="#a"/></defs><path d="M226.483 72.187c46.05 93.977-25.843 140.965-36.18 146.604 15.975-48.867 36.18-146.603 36.18-146.603z" fill="#368c00" fill-rule="evenodd" stroke="#e8e9e8" stroke-width="2.5"/><g display="block" fill-rule="evenodd" stroke="#b8b8b8" stroke-width="1.875"><path d="M84.722 154.796C76.078 69.076 123.98 40.622 123.98 40.622c-2.52-23.05-15.487-19.81-15.487-19.81C14.49 75.2 54.107 173.166 54.107 173.166l1.44.36c27.014-13.327 29.175-18.73 29.175-18.73z" fill="#b32000"/><path d="M53.387 175.326c-9.725 4.682-15.127 2.52-15.127 2.52-45.38-110.57 64.236-155.342 64.236-155.342 9.725-2.88 6.357-1.33 6.357-1.33-95.085 52.944-54.746 156.673-55.466 154.152z" fill="#fff"/><path d="M39.7 179.648c24.852-6.844 45.022-24.852 45.022-24.852 37.817 15.127 40.34 18.73 48.623 22.33-31.335 38.178-44.66 36.377-58.348 38.538-20.89-7.203-35.296-36.016-35.296-36.016z" fill="#b32000"/><path d="M75.717 216.385c34.937-4.682 52.945-41.06 57.628-39.98 36.016 15.488 30.614 14.048 30.614 14.048-33.857 54.385-42.86 42.86-42.86 42.86-26.654-2.52-45.383-16.928-45.383-16.928z" fill="#fef"/><path d="M165.4 189.732c33.856 14.767 28.813 10.445 31.695 13.687-4.323 35.295-75.996 29.533-75.996 29.533 39.257-30.615 44.3-43.22 44.3-43.22z" fill="#368c00"/></g><g fill-rule="evenodd" stroke="#b8b8b8" stroke-width="1.875"><path d="M124.02 40.076c-4.34-22.71-11.3-19.24-10.3-20.243 40.743-3.674 48.424 3.005 48.424 3.005s1.658 2.885 1.775 2.855c12.69 22.71 4.904 23.862 4.904 23.862-41.41-11.02-39.04-7.138-44.803-9.48z" fill="#368c00"/><path d="M169 49.266c9.006-6.663-7.922-27.192-7.922-27.192 38.718 9.544 40.7 22.87 40.7 22.87-.36 18.91-1.442 18.37-1.442 18.37C173.683 49.625 169 49.265 169 49.265z" fill="#fffbff"/><path d="M200.696 63.493c1.26-24.492 1.26-21.97 1.26-19.45 23.232 11.886 28.814 40.7 28.094 44.302-27.553-22.51-29.354-24.852-29.354-24.852z" fill="#b40000"/></g><g display="block"><path d="M85.507 155.03c-2.666-22.946-.692-46.154.462-47.54 107.464 43.376 132.434 61.278 134.772 64.618l.77-.206c-15.23 34.154-28.463 29.284-28.463 29.284l-2.078-.923c-84.926-34.847-100.157-41.31-105.465-45.232z" fill="#fdffff" fill-rule="evenodd" stroke="#b8b8b8" stroke-width="1.875"/><path d="M85.84 106.495c1.93-15.812 10.23-30.16 10.23-30.16 110.77 13.386 138.15 59.62 137.784 60.556 1.38 8-.574 13.008-2.74 20.004-2.167 6.997-5.008 11.974-9.71 15.506-4.752 3.57-132.564-63.136-135.564-65.905z" fill="#fdffff" fill-rule="evenodd" stroke="#b8b8b8" stroke-width="1.875"/><path d="M95.864 76.753c15.658-26.844 27.746-35.185 27.746-35.185C211.304 51.722 229.973 89.26 229.973 89.26l-.23-.23c9.922 34.154 5.02 51.26 3.866 47.336-37.63-49.53-129.516-58.708-137.746-59.613z" fill="#fdffff" fill-rule="evenodd" stroke="#b8b8b8" stroke-width="1.875"/><path d="M151.314 525.987a101.38 90.646 0 1 1-.203-.174" transform="matrix(1.06008 0 0 1.19667 49.35 -581.457)" opacity=".134" fill="url(#b)" display="block"/><text font-size="20" color="#000" stroke-width="1.333" display="block" font-family="Arial Black" letter-spacing="0" writing-mode="lr" opacity=".766"><textPath xlink:href="#c"><tspan>Volley-Ball</tspan></textPath></text><path d="M105.254 104.14c92.097 31.95 116.53 58.265 116.53 58.265" id="c" fill="none" fill-opacity=".75" fill-rule="evenodd" stroke="#000" stroke-width=".333" stroke-opacity="0"/></g></svg>